<svg id="visual" viewBox="0 0 900 675" width="900" height="675" xmlns="http://www.w3.org/2000/svg" xmlns:xlink="http://www.w3.org/1999/xlink" version="1.1"><rect x="0" y="0" width="900" height="675" fill="#010b13"></rect><defs><linearGradient id="grad1_0" x1="25%" y1="100%" x2="100%" y2="0%"><stop offset="23.333333333333336%" stop-color="#6600ff" stop-opacity="1"></stop><stop offset="76.66666666666666%" stop-color="#6600ff" stop-opacity="1"></stop></linearGradient></defs><defs><linearGradient id="grad1_1" x1="25%" y1="100%" x2="100%" y2="0%"><stop offset="23.333333333333336%" stop-color="#6600ff" stop-opacity="1"></stop><stop offset="76.66666666666666%" stop-color="#010b13" stop-opacity="1"></stop></linearGradient></defs><defs><linearGradient id="grad2_0" x1="0%" y1="100%" x2="75%" y2="0%"><stop offset="23.333333333333336%" stop-color="#6600ff" stop-opacity="1"></stop><stop offset="76.66666666666666%" stop-color="#6600ff" stop-opacity="1"></stop></linearGradient></defs><defs><linearGradient id="grad2_1" x1="0%" y1="100%" x2="75%" y2="0%"><stop offset="23.333333333333336%" stop-color="#010b13" stop-opacity="1"></stop><stop offset="76.66666666666666%" stop-color="#6600ff" stop-opacity="1"></stop></linearGradient></defs><g transform="translate(900, 675)"><path d="M-281.2 0C-265.4 -26.2 -249.6 -52.4 -238.7 -77.6C-227.8 -102.7 -221.9 -126.7 -212 -154C-202.1 -181.3 -188.2 -211.9 -165.3 -227.5C-142.4 -243.1 -110.3 -243.7 -81.3 -250.1C-52.2 -256.6 -26.1 -268.9 0 -281.2L0 0Z" fill="#003293"></path><path d="M-140.6 0C-132.7 -13.1 -124.8 -26.2 -119.4 -38.8C-113.9 -51.3 -110.9 -63.3 -106 -77C-101 -90.7 -94.1 -106 -82.7 -113.8C-71.2 -121.6 -55.2 -121.8 -40.6 -125.1C-26.1 -128.3 -13.1 -134.5 0 -140.6L0 0Z" fill="#6600ff"></path></g><g transform="translate(0, 0)"><path d="M281.3 0C266.7 25.3 252.1 50.6 245.4 79.7C238.6 108.8 239.8 141.8 224.9 163.4C210 185 179.2 195.3 154.6 212.8C130 230.2 111.6 254.9 86.9 267.5C62.2 280.1 31.1 280.7 0 281.3L0 0Z" fill="#003293"></path><path d="M140.6 0C133.3 12.7 126 25.3 122.7 39.9C119.3 54.4 119.9 70.9 112.5 81.7C105 92.5 89.6 97.7 77.3 106.4C65 115.1 55.8 127.4 43.5 133.7C31.1 140 15.5 140.3 0 140.6L0 0Z" fill="#6600ff"></path></g></svg>